<?xml version="1.0" standalone="no"?><!DOCTYPE svg PUBLIC "-//W3C//DTD SVG 1.1//EN" "http://www.w3.org/Graphics/SVG/1.1/DTD/svg11.dtd"><svg t="1759817337131" class="icon" viewBox="0 0 1024 1024" version="1.1" xmlns="http://www.w3.org/2000/svg" p-id="11678" xmlns:xlink="http://www.w3.org/1999/xlink" width="256" height="256"><path d="M961.024 764.416V259.584L523.776 6.656 86.016 259.584v504.832l437.76 252.928z" fill="#409EFF" p-id="11679"></path><path d="M681.984 283.648H365.568c-48.128 0-87.04 38.912-87.04 87.04v255.488c0 48.128 38.912 87.04 87.04 87.04H524.8s17.92-1.024 39.936 1.024c27.136 3.072 47.616 10.24 58.88 20.992 3.072 2.56 6.656 4.096 10.24 4.096s7.68-1.536 10.752-4.608c5.632-5.632 5.632-14.848-0.512-20.48-15.872-15.36-41.472-25.088-75.776-28.672-22.528-2.56-40.96-1.536-44.544-1.536H365.568c-32.256 0-58.368-26.112-58.368-58.368V371.2c0-32.256 26.112-58.368 58.368-58.368h316.416c32.256 0 58.368 26.112 58.368 58.368v255.488c0 32.256-26.112 58.368-58.368 58.368-8.192 0-14.336 6.656-14.336 14.336s6.656 14.336 14.336 14.336c48.128 0 87.04-38.912 87.04-87.04V371.2c0-48.128-38.912-87.552-87.04-87.552z" fill="#FFFFFF" p-id="11680"></path><path d="M654.336 491.008L457.728 374.272c-4.608-2.56-10.24-2.56-14.848 0-4.608 2.56-7.168 7.168-7.168 12.8v237.056c0 8.192 6.656 14.336 14.336 14.336 8.192 0 14.336-6.656 14.336-14.336V412.672L619.52 504.32l-83.456 52.736c-4.096 2.56-16.896 8.704-26.624 8.192-8.192-0.512-14.848 5.632-15.36 13.824-0.512 8.192 5.632 14.848 13.824 15.36h2.56c19.456 0 38.912-11.264 40.96-12.8l103.424-65.536c4.096-2.56 6.656-7.68 6.656-12.288 0-5.632-2.56-10.24-7.168-12.8z" fill="#FFFFFF" p-id="11681"></path></svg>